<svg width="672" height="201" viewBox="0 0 672 201" fill="none" xmlns="http://www.w3.org/2000/svg">
<path d="M25.582 130V127.832H28.2188C30.5234 127.832 32.2812 127.48 33.4922 126.777C34.7422 126.035 35.6602 125.039 36.2461 123.789C36.5977 122.969 36.7734 120.508 36.7734 116.406V64.1406C36.7734 60.0781 36.5586 57.5391 36.1289 56.5234C35.6992 55.5078 34.8203 54.6289 33.4922 53.8867C32.2031 53.1055 30.4453 52.7148 28.2188 52.7148H25.582V50.5469H61.1484C70.6406 50.5469 78.2773 51.8359 84.0586 54.4141C91.1289 57.5781 96.4805 62.3633 100.113 68.7695C103.785 75.1758 105.621 82.4219 105.621 90.5078C105.621 96.0938 104.723 101.25 102.926 105.977C101.129 110.664 98.8047 114.551 95.9531 117.637C93.1016 120.684 89.8008 123.145 86.0508 125.02C82.3398 126.855 77.7891 128.281 72.3984 129.297C70.0156 129.766 66.2656 130 61.1484 130H25.582ZM55.875 55.0586V117.051C55.875 120.332 56.0312 122.344 56.3438 123.086C56.6562 123.828 57.1836 124.395 57.9258 124.785C58.9805 125.371 60.5039 125.664 62.4961 125.664C69.0195 125.664 74 123.438 77.4375 118.984C82.125 112.969 84.4688 103.633 84.4688 90.9766C84.4688 80.7812 82.8672 72.6367 79.6641 66.543C77.125 61.7773 73.8633 58.5352 69.8789 56.8164C67.0664 55.6055 62.3984 55.0195 55.875 55.0586ZM144.996 121.914C138.316 127.812 132.32 130.762 127.008 130.762C123.883 130.762 121.285 129.746 119.215 127.715C117.145 125.645 116.109 123.066 116.109 119.98C116.109 115.801 117.906 112.051 121.5 108.73C125.094 105.371 132.926 100.918 144.996 95.3711V89.8633C144.996 85.7227 144.762 83.125 144.293 82.0703C143.863 80.9766 143.023 80.0391 141.773 79.2578C140.523 78.4375 139.117 78.0273 137.555 78.0273C135.016 78.0273 132.926 78.5938 131.285 79.7266C130.27 80.4297 129.762 81.25 129.762 82.1875C129.762 83.0078 130.309 84.0234 131.402 85.2344C132.887 86.9141 133.629 88.5352 133.629 90.0977C133.629 92.0117 132.906 93.6523 131.461 95.0195C130.055 96.3477 128.199 97.0117 125.895 97.0117C123.434 97.0117 121.363 96.2695 119.684 94.7852C118.043 93.3008 117.223 91.5625 117.223 89.5703C117.223 86.7578 118.336 84.082 120.562 81.543C122.789 78.9648 125.895 76.9922 129.879 75.625C133.863 74.2578 138.004 73.5742 142.301 73.5742C147.496 73.5742 151.598 74.6875 154.605 76.9141C157.652 79.1016 159.625 81.4844 160.523 84.0625C161.07 85.7031 161.344 89.4727 161.344 95.3711V116.641C161.344 119.141 161.441 120.723 161.637 121.387C161.832 122.012 162.125 122.48 162.516 122.793C162.906 123.105 163.355 123.262 163.863 123.262C164.879 123.262 165.914 122.539 166.969 121.094L168.727 122.5C166.773 125.391 164.742 127.5 162.633 128.828C160.562 130.117 158.199 130.762 155.543 130.762C152.418 130.762 149.977 130.039 148.219 128.594C146.461 127.109 145.387 124.883 144.996 121.914ZM144.996 117.637V99.2969C140.27 102.07 136.754 105.039 134.449 108.203C132.926 110.312 132.164 112.441 132.164 114.59C132.164 116.387 132.809 117.969 134.098 119.336C135.074 120.391 136.441 120.918 138.199 120.918C140.152 120.918 142.418 119.824 144.996 117.637ZM196.5 55.1758V75.2148H209.508V81.0156H196.5V114.824C196.5 117.988 196.637 120.039 196.91 120.977C197.223 121.875 197.75 122.617 198.492 123.203C199.234 123.75 199.918 124.023 200.543 124.023C203.082 124.023 205.484 122.09 207.75 118.223L209.508 119.512C206.344 127.012 201.207 130.762 194.098 130.762C190.621 130.762 187.672 129.805 185.25 127.891C182.867 125.938 181.344 123.77 180.68 121.387C180.289 120.059 180.094 116.465 180.094 110.605V81.0156H172.945V78.9648C177.867 75.4883 182.047 71.8359 185.484 68.0078C188.961 64.1797 191.988 59.9023 194.566 55.1758H196.5ZM244.957 121.914C238.277 127.812 232.281 130.762 226.969 130.762C223.844 130.762 221.246 129.746 219.176 127.715C217.105 125.645 216.07 123.066 216.07 119.98C216.07 115.801 217.867 112.051 221.461 108.73C225.055 105.371 232.887 100.918 244.957 95.3711V89.8633C244.957 85.7227 244.723 83.125 244.254 82.0703C243.824 80.9766 242.984 80.0391 241.734 79.2578C240.484 78.4375 239.078 78.0273 237.516 78.0273C234.977 78.0273 232.887 78.5938 231.246 79.7266C230.23 80.4297 229.723 81.25 229.723 82.1875C229.723 83.0078 230.27 84.0234 231.363 85.2344C232.848 86.9141 233.59 88.5352 233.59 90.0977C233.59 92.0117 232.867 93.6523 231.422 95.0195C230.016 96.3477 228.16 97.0117 225.855 97.0117C223.395 97.0117 221.324 96.2695 219.645 94.7852C218.004 93.3008 217.184 91.5625 217.184 89.5703C217.184 86.7578 218.297 84.082 220.523 81.543C222.75 78.9648 225.855 76.9922 229.84 75.625C233.824 74.2578 237.965 73.5742 242.262 73.5742C247.457 73.5742 251.559 74.6875 254.566 76.9141C257.613 79.1016 259.586 81.4844 260.484 84.0625C261.031 85.7031 261.305 89.4727 261.305 95.3711V116.641C261.305 119.141 261.402 120.723 261.598 121.387C261.793 122.012 262.086 122.48 262.477 122.793C262.867 123.105 263.316 123.262 263.824 123.262C264.84 123.262 265.875 122.539 266.93 121.094L268.688 122.5C266.734 125.391 264.703 127.5 262.594 128.828C260.523 130.117 258.16 130.762 255.504 130.762C252.379 130.762 249.938 130.039 248.18 128.594C246.422 127.109 245.348 124.883 244.957 121.914ZM244.957 117.637V99.2969C240.23 102.07 236.715 105.039 234.41 108.203C232.887 110.312 232.125 112.441 232.125 114.59C232.125 116.387 232.77 117.969 234.059 119.336C235.035 120.391 236.402 120.918 238.16 120.918C240.113 120.918 242.379 119.824 244.957 117.637ZM380.777 48.7305V76.2695H378.492C376.773 69.082 373.57 63.5742 368.883 59.7461C364.195 55.918 358.883 54.0039 352.945 54.0039C347.984 54.0039 343.434 55.4297 339.293 58.2812C335.152 61.1328 332.125 64.8633 330.211 69.4727C327.75 75.3711 326.52 81.9336 326.52 89.1602C326.52 96.2695 327.418 102.754 329.215 108.613C331.012 114.434 333.824 118.848 337.652 121.855C341.48 124.824 346.441 126.309 352.535 126.309C357.535 126.309 362.105 125.215 366.246 123.027C370.426 120.84 374.82 117.07 379.43 111.719V118.574C374.977 123.223 370.328 126.602 365.484 128.711C360.68 130.781 355.055 131.816 348.609 131.816C340.133 131.816 332.594 130.117 325.992 126.719C319.43 123.32 314.352 118.438 310.758 112.07C307.203 105.703 305.426 98.9258 305.426 91.7383C305.426 84.1602 307.398 76.9727 311.344 70.1758C315.328 63.3789 320.68 58.1055 327.398 54.3555C334.156 50.6055 341.324 48.7305 348.902 48.7305C354.488 48.7305 360.387 49.9414 366.598 52.3633C370.191 53.7695 372.477 54.4727 373.453 54.4727C374.703 54.4727 375.777 54.0234 376.676 53.125C377.613 52.1875 378.219 50.7227 378.492 48.7305H380.777ZM414.176 75.2148V87.6367C417.809 81.9727 420.992 78.2227 423.727 76.3867C426.461 74.5117 429.098 73.5742 431.637 73.5742C433.824 73.5742 435.562 74.2578 436.852 75.625C438.18 76.9531 438.844 78.8477 438.844 81.3086C438.844 83.9258 438.199 85.957 436.91 87.4023C435.66 88.8477 434.137 89.5703 432.34 89.5703C430.27 89.5703 428.473 88.9062 426.949 87.5781C425.426 86.25 424.527 85.5078 424.254 85.3516C423.863 85.1172 423.414 85 422.906 85C421.773 85 420.699 85.4297 419.684 86.2891C418.082 87.6172 416.871 89.5117 416.051 91.9727C414.801 95.7617 414.176 99.9414 414.176 104.512V117.109L414.234 120.391C414.234 122.617 414.371 124.043 414.645 124.668C415.113 125.723 415.797 126.504 416.695 127.012C417.633 127.48 419.195 127.773 421.383 127.891V130H391.793V127.891C394.176 127.695 395.777 127.051 396.598 125.957C397.457 124.824 397.887 121.875 397.887 117.109V86.8164C397.887 83.6914 397.73 81.6992 397.418 80.8398C397.027 79.7461 396.461 78.9453 395.719 78.4375C394.977 77.9297 393.668 77.5781 391.793 77.3828V75.2148H414.176ZM497.672 75.2148V118.105C497.672 122.285 498.062 124.902 498.844 125.957C499.625 126.973 501.207 127.617 503.59 127.891V130H481.266V122.676C478.648 125.801 476.031 128.086 473.414 129.531C470.797 130.938 467.867 131.641 464.625 131.641C461.539 131.641 458.785 130.703 456.363 128.828C453.98 126.914 452.379 124.688 451.559 122.148C450.738 119.609 450.328 115.176 450.328 108.848V87.1094C450.328 82.9688 449.938 80.3906 449.156 79.375C448.414 78.3594 446.832 77.6953 444.41 77.3828V75.2148H466.734V112.656C466.734 116.562 466.91 119.082 467.262 120.215C467.652 121.348 468.238 122.207 469.02 122.793C469.84 123.379 470.777 123.672 471.832 123.672C473.238 123.672 474.508 123.301 475.641 122.559C477.203 121.543 479.078 119.492 481.266 116.406V87.1094C481.266 82.9688 480.875 80.3906 480.094 79.375C479.352 78.3594 477.77 77.6953 475.348 77.3828V75.2148H497.672ZM524.742 48.6719C527.281 48.6719 529.43 49.5703 531.188 51.3672C532.945 53.125 533.824 55.2539 533.824 57.7539C533.824 60.2539 532.926 62.3828 531.129 64.1406C529.371 65.8984 527.242 66.7773 524.742 66.7773C522.242 66.7773 520.113 65.8984 518.355 64.1406C516.598 62.3828 515.719 60.2539 515.719 57.7539C515.719 55.2539 516.598 53.125 518.355 51.3672C520.113 49.5703 522.242 48.6719 524.742 48.6719ZM532.945 75.2148V118.633C532.945 122.5 533.395 124.98 534.293 126.074C535.191 127.129 536.949 127.734 539.566 127.891V130H509.977V127.891C512.398 127.812 514.195 127.109 515.367 125.781C516.148 124.883 516.539 122.5 516.539 118.633V86.6406C516.539 82.7734 516.09 80.3125 515.191 79.2578C514.293 78.1641 512.555 77.5391 509.977 77.3828V75.2148H532.945ZM589.84 130H542.145V128.711L572.262 78.7891H563.473C559.684 78.7891 556.969 79.1406 555.328 79.8438C553.688 80.5078 552.359 81.6016 551.344 83.125C550.328 84.6094 549.273 87.2852 548.18 91.1523H546.129V75.2148H592.242V76.7969L562.359 126.25H566.109C573.609 126.25 579.02 125.176 582.34 123.027C585.66 120.879 588.16 116.953 589.84 111.25H591.48L589.84 130ZM644.684 100.645H614.625C614.977 107.91 616.91 113.652 620.426 117.871C623.121 121.113 626.363 122.734 630.152 122.734C632.496 122.734 634.625 122.09 636.539 120.801C638.453 119.473 640.504 117.109 642.691 113.711L644.684 115C641.715 121.055 638.434 125.352 634.84 127.891C631.246 130.391 627.086 131.641 622.359 131.641C614.234 131.641 608.082 128.516 603.902 122.266C600.543 117.227 598.863 110.977 598.863 103.516C598.863 94.375 601.324 87.1094 606.246 81.7188C611.207 76.2891 617.008 73.5742 623.648 73.5742C629.195 73.5742 634 75.8594 638.062 80.4297C642.164 84.9609 644.371 91.6992 644.684 100.645ZM630.27 96.7188C630.27 90.4297 629.918 86.1133 629.215 83.7695C628.551 81.4258 627.496 79.6484 626.051 78.4375C625.23 77.7344 624.137 77.3828 622.77 77.3828C620.738 77.3828 619.078 78.3789 617.789 80.3711C615.484 83.8477 614.332 88.6133 614.332 94.668V96.7188H630.27Z" fill="#E80000"/>
<path d="M192.676 162L191.367 159.025H185.043L183.734 162H181.983L187.372 150.1H189.055L194.461 162H192.676ZM185.638 157.665H190.772L188.205 151.834L185.638 157.665ZM206.661 162.136C203.057 162.136 200.371 159.569 200.371 156.05C200.371 152.531 203.057 149.964 206.678 149.964C208.514 149.964 210.112 150.593 211.2 151.817L210.095 152.888C209.177 151.919 208.055 151.477 206.746 151.477C204.06 151.477 202.071 153.415 202.071 156.05C202.071 158.685 204.06 160.623 206.746 160.623C208.055 160.623 209.177 160.164 210.095 159.195L211.2 160.266C210.112 161.49 208.514 162.136 206.661 162.136ZM223.967 162.136C220.363 162.136 217.677 159.569 217.677 156.05C217.677 152.531 220.363 149.964 223.984 149.964C225.82 149.964 227.418 150.593 228.506 151.817L227.401 152.888C226.483 151.919 225.361 151.477 224.052 151.477C221.366 151.477 219.377 153.415 219.377 156.05C219.377 158.685 221.366 160.623 224.052 160.623C225.361 160.623 226.483 160.164 227.401 159.195L228.506 160.266C227.418 161.49 225.82 162.136 223.967 162.136ZM237.901 160.521H244.837V162H236.201V150.1H244.599V151.579H237.901V155.234H243.868V156.679H237.901V160.521ZM252.86 162V150.1H254.56V160.521H261.003V162H252.86ZM269.924 160.521H276.86V162H268.224V150.1H276.622V151.579H269.924V155.234H275.891V156.679H269.924V160.521ZM294.692 162H292.839L290.272 158.345C290.034 158.362 289.779 158.379 289.524 158.379H286.583V162H284.883V150.1H289.524C292.618 150.1 294.488 151.664 294.488 154.248C294.488 156.084 293.536 157.41 291.87 158.005L294.692 162ZM289.473 156.934C291.649 156.934 292.788 155.948 292.788 154.248C292.788 152.548 291.649 151.579 289.473 151.579H286.583V156.934H289.473ZM311.395 162L310.086 159.025H303.762L302.453 162H300.702L306.091 150.1H307.774L313.18 162H311.395ZM304.357 157.665H309.491L306.924 151.834L304.357 157.665ZM321.991 162V151.579H317.911V150.1H327.754V151.579H323.674V162H321.991ZM336.575 160.521H343.511V162H334.875V150.1H343.273V151.579H336.575V155.234H342.542V156.679H336.575V160.521ZM361.369 162V150.1H366.384C370.209 150.1 372.81 152.514 372.81 156.05C372.81 159.586 370.209 162 366.384 162H361.369ZM363.069 160.521H366.282C369.223 160.521 371.11 158.719 371.11 156.05C371.11 153.381 369.223 151.579 366.282 151.579H363.069V160.521ZM389.409 162L388.1 159.025H381.776L380.467 162H378.716L384.105 150.1H385.788L391.194 162H389.409ZM382.371 157.665H387.505L384.938 151.834L382.371 157.665ZM400.005 162V151.579H395.925V150.1H405.768V151.579H401.688V162H400.005ZM421.183 162L419.874 159.025H413.55L412.241 162H410.49L415.879 150.1H417.562L422.968 162H421.183ZM414.145 157.665H419.279L416.712 151.834L414.145 157.665ZM438.02 155.829C439.363 156.203 440.247 157.206 440.247 158.787C440.247 160.827 438.7 162 435.691 162H430.013V150.1H435.351C438.088 150.1 439.618 151.256 439.618 153.177C439.618 154.469 438.955 155.37 438.02 155.829ZM435.198 151.477H431.713V155.285H435.198C436.932 155.285 437.918 154.639 437.918 153.381C437.918 152.123 436.932 151.477 435.198 151.477ZM435.623 160.623C437.51 160.623 438.53 160.028 438.53 158.651C438.53 157.274 437.51 156.662 435.623 156.662H431.713V160.623H435.623ZM457.958 162H456.105L453.538 158.345C453.3 158.362 453.045 158.379 452.79 158.379H449.849V162H448.149V150.1H452.79C455.884 150.1 457.754 151.664 457.754 154.248C457.754 156.084 456.802 157.41 455.136 158.005L457.958 162ZM452.739 156.934C454.915 156.934 456.054 155.948 456.054 154.248C456.054 152.548 454.915 151.579 452.739 151.579H449.849V156.934H452.739ZM465.771 162V150.1H467.471V162H465.771ZM481.624 162.136C478.02 162.136 475.334 159.569 475.334 156.05C475.334 152.531 478.02 149.964 481.641 149.964C483.477 149.964 485.075 150.593 486.163 151.817L485.058 152.888C484.14 151.919 483.018 151.477 481.709 151.477C479.023 151.477 477.034 153.415 477.034 156.05C477.034 158.685 479.023 160.623 481.709 160.623C483.018 160.623 484.14 160.164 485.058 159.195L486.163 160.266C485.075 161.49 483.477 162.136 481.624 162.136ZM502.29 162L497.734 156.713L495.558 158.923V162H493.858V150.1H495.558V156.747L502.018 150.1H503.956L498.873 155.455L504.279 162H502.29ZM514.566 162.136C512.747 162.136 510.962 161.524 510.01 160.64L510.639 159.314C511.523 160.113 513.036 160.691 514.566 160.691C516.623 160.691 517.507 159.892 517.507 158.855C517.507 155.948 510.299 157.784 510.299 153.364C510.299 151.528 511.727 149.964 514.855 149.964C516.249 149.964 517.694 150.338 518.68 151.018L518.119 152.378C517.082 151.715 515.909 151.409 514.855 151.409C512.832 151.409 511.965 152.259 511.965 153.296C511.965 156.203 519.173 154.384 519.173 158.753C519.173 160.572 517.711 162.136 514.566 162.136ZM540.23 162.136C538.411 162.136 536.626 161.524 535.674 160.64L536.303 159.314C537.187 160.113 538.7 160.691 540.23 160.691C542.287 160.691 543.171 159.892 543.171 158.855C543.171 155.948 535.963 157.784 535.963 153.364C535.963 151.528 537.391 149.964 540.519 149.964C541.913 149.964 543.358 150.338 544.344 151.018L543.783 152.378C542.746 151.715 541.573 151.409 540.519 151.409C538.496 151.409 537.629 152.259 537.629 153.296C537.629 156.203 544.837 154.384 544.837 158.753C544.837 160.572 543.375 162.136 540.23 162.136ZM557.521 162.136C554.393 162.136 552.489 160.317 552.489 156.866V150.1H554.189V156.798C554.189 159.433 555.396 160.623 557.538 160.623C559.68 160.623 560.904 159.433 560.904 156.798V150.1H562.553V156.866C562.553 160.317 560.666 162.136 557.521 162.136ZM576.629 162.136C573.025 162.136 570.339 159.569 570.339 156.05C570.339 152.531 573.025 149.964 576.646 149.964C578.482 149.964 580.08 150.593 581.168 151.817L580.063 152.888C579.145 151.919 578.023 151.477 576.714 151.477C574.028 151.477 572.039 153.415 572.039 156.05C572.039 158.685 574.028 160.623 576.714 160.623C578.023 160.623 579.145 160.164 580.063 159.195L581.168 160.266C580.08 161.49 578.482 162.136 576.629 162.136ZM593.935 162.136C590.331 162.136 587.645 159.569 587.645 156.05C587.645 152.531 590.331 149.964 593.952 149.964C595.788 149.964 597.386 150.593 598.474 151.817L597.369 152.888C596.451 151.919 595.329 151.477 594.02 151.477C591.334 151.477 589.345 153.415 589.345 156.05C589.345 158.685 591.334 160.623 594.02 160.623C595.329 160.623 596.451 160.164 597.369 159.195L598.474 160.266C597.386 161.49 595.788 162.136 593.935 162.136ZM607.869 160.521H614.805V162H606.169V150.1H614.567V151.579H607.869V155.234H613.836V156.679H607.869V160.521ZM626.296 162.136C624.477 162.136 622.692 161.524 621.74 160.64L622.369 159.314C623.253 160.113 624.766 160.691 626.296 160.691C628.353 160.691 629.237 159.892 629.237 158.855C629.237 155.948 622.029 157.784 622.029 153.364C622.029 151.528 623.457 149.964 626.585 149.964C627.979 149.964 629.424 150.338 630.41 151.018L629.849 152.378C628.812 151.715 627.639 151.409 626.585 151.409C624.562 151.409 623.695 152.259 623.695 153.296C623.695 156.203 630.903 154.384 630.903 158.753C630.903 160.572 629.441 162.136 626.296 162.136ZM642.125 162.136C640.306 162.136 638.521 161.524 637.569 160.64L638.198 159.314C639.082 160.113 640.595 160.691 642.125 160.691C644.182 160.691 645.066 159.892 645.066 158.855C645.066 155.948 637.858 157.784 637.858 153.364C637.858 151.528 639.286 149.964 642.414 149.964C643.808 149.964 645.253 150.338 646.239 151.018L645.678 152.378C644.641 151.715 643.468 151.409 642.414 151.409C640.391 151.409 639.524 152.259 639.524 153.296C639.524 156.203 646.732 154.384 646.732 158.753C646.732 160.572 645.27 162.136 642.125 162.136Z" fill="black"/>
</svg>
